<svg viewBox="0 0 24 24" fill="#FF4500" xmlns="http://www.w3.org/2000/svg"><path d="M12 0C5.373 0 0 5.373 0 12c0 3.314 1.343 6.314 3.515 8.485l-.014.014.015.015A11.94 11.94 0 0 0 12 24c6.627 0 12-5.373 12-12S18.627 0 12 0Zm5.995 13.705c.033.222.05.448.05.68 0 3.467-4.037 6.281-9.014 6.281-4.977 0-9.014-2.814-9.014-6.281 0-.224.016-.444.047-.66a1.793 1.793 0 0 1-.744-1.453c0-.99.805-1.794 1.794-1.794.464 0 .887.177 1.206.467 1.188-.855 2.828-1.405 4.647-1.475l.885-4.183a.397.397 0 0 1 .47-.312l2.96.625c.204-.484.677-.83 1.23-.83a1.363 1.363 0 0 1 0 2.726 1.364 1.364 0 0 1-1.344-1.12l-2.634-.555-.784 3.708c1.773.092 3.37.65 4.53 1.505a1.786 1.786 0 0 1 1.19-.452c.99 0 1.794.804 1.794 1.794 0 .598-.294 1.127-.744 1.453ZM8.978 12.088a1.363 1.363 0 1 0 0 2.726 1.363 1.363 0 0 0 0-2.726Zm6.044 0a1.363 1.363 0 1 0 0 2.726 1.363 1.363 0 0 0 0-2.726Zm-5.092 4.146a.39.39 0 0 1 .554 0c.624.624 1.636.928 3.09.928h.012c1.454 0 2.466-.304 3.09-.928a.393.393 0 0 1 .554.554c-.792.793-2.003 1.178-3.644 1.178h-.012c-1.641 0-2.852-.385-3.644-1.178a.393.393 0 0 1 0-.554Z"/></svg>